<svg
  xmlns="http://www.w3.org/2000/svg"
  xmlns:xlink="http://www.w3.org/1999/xlink"
  xml:space="preserve"
  width="111.89689"
  height="57.594337"
  version="1.1"
  style="clip-rule:evenodd;fill-rule:evenodd;image-rendering:optimizeQuality;shape-rendering:geometricPrecision;text-rendering:geometricPrecision"
  viewBox="0 0 111.89689 57.594335"
>
 <defs>
  <style
    type="text/css"
    id="style3838">
    .str2 {stroke:#04869B;stroke-width:3}
    .str0 {stroke:#7FC9D5;stroke-width:19.685}
    .str1 {stroke:#7FC9D5;stroke-width:29.5276}
    .fil0 {fill:none}
    .fil2 {fill:#04869B}
    .fil3 {fill:url(#id1)}
    .fil1 {fill:url(#id3)}
  </style>
   <linearGradient
     id="id0"
     gradientUnits="userSpaceOnUse"
     x1="1477.66"
     y1="6626.4302"
     x2="1463.15"
     y2="7242.46">
   <stop
     offset="0"
     style="stop-color:#E84846"
     id="stop3840" />
     <stop
       offset="1"
       style="stop-color:#DB2824"
       id="stop3842" />
  </linearGradient>
   <linearGradient
     id="id1"
     gradientUnits="userSpaceOnUse"
     xlink:href="#id0"
     x1="3003.6699"
     y1="2759.5901"
     x2="2989.1599"
     y2="3375.6201"
     gradientTransform="matrix(0.03875875,0,0,0.03875875,-99.454543,-98.177046)">
  </linearGradient>
   <linearGradient
     id="id2"
     gradientUnits="userSpaceOnUse"
     xlink:href="#id0"
     x1="3396.27"
     y1="4804.73"
     x2="3381.77"
     y2="5420.7598">
  </linearGradient>
   <linearGradient
     id="id3"
     gradientUnits="userSpaceOnUse"
     x1="3133.8899"
     y1="3140.8101"
     x2="3380.1299"
     y2="3330.76"
     gradientTransform="matrix(0.03875875,0,0,0.03875875,-99.454543,-98.177046)">
   <stop
     offset="0"
     style="stop-color:#DBEFF8"
     id="stop3847" />
     <stop
       offset="1"
       style="stop-color:#FEFEFE"
       id="stop3849" />
  </linearGradient>
 </defs>
  <path
    style="fill:url(#id3);stroke-width:0.03875874"
    id="path3877"
    d="m 26.821458,27.827602 0.11627,26.239742 C 12.131899,54.144819 0.07791932,43.09858 3.753202e-4,27.982654 -0.07713468,12.866728 11.860549,0.54147245 26.666408,0.46392845 41.472228,0.38641845 53.526248,12.595415 53.603758,27.711341 l -26.7823,0.155015 z"
    class="fil1" />
  <path
    style="fill:#04869b;stroke-width:0.03875874"
    id="path3879"
    d="m 34.844508,54.028516 1.78289,0.542625 c -0.27128,1.007748 -0.7364,1.744143 -1.35653,2.209259 -0.62017,0.465076 -1.43411,0.736429 -2.40306,0.736429 -1.20151,0 -2.20925,-0.426288 -2.98444,-1.240266 -0.77515,-0.813977 -1.16275,-1.937981 -1.16275,-3.37201 0,-1.511618 0.3876,-2.674376 1.16275,-3.527103 0.77519,-0.852691 1.82168,-1.24019 3.06195,-1.24019 1.124,0 2.01548,0.309992 2.71313,0.968915 0.42632,0.387574 0.73639,0.930239 0.93019,1.666627 l -1.82164,0.426329 c -0.1163,-0.465083 -0.34882,-0.852651 -0.65893,-1.124004 -0.34882,-0.271312 -0.73639,-0.426328 -1.24026,-0.426328 -0.65888,0 -1.20151,0.232598 -1.62788,0.736395 -0.42632,0.465116 -0.62013,1.279053 -0.62013,2.325555 0,1.162757 0.19381,1.976694 0.62013,2.44177 0.42637,0.503878 0.93024,0.736395 1.62788,0.736395 0.50387,0 0.89144,-0.154975 1.24026,-0.465076 0.34886,-0.310066 0.62018,-0.813903 0.73644,-1.47283 z m 7.13159,1.27902 v 0 l 1.74415,0.310107 c -0.23257,0.620132 -0.58139,1.124003 -1.04647,1.434069 -0.46508,0.348821 -1.08524,0.50383 -1.78289,0.50383 -1.124,0 -1.97673,-0.387534 -2.51932,-1.123962 -0.42636,-0.581379 -0.65892,-1.356528 -0.65892,-2.286761 0,-1.085216 0.27131,-1.937947 0.85269,-2.55808 0.58138,-0.620167 1.27909,-0.930233 2.17054,-0.930233 0.96891,0 1.7441,0.310066 2.32548,0.968953 0.58141,0.658887 0.85272,1.627915 0.81394,2.984476 h -4.34097 c 0,0.503837 0.15501,0.930159 0.42636,1.201545 0.27128,0.271313 0.58134,0.426295 1.00771,0.426295 0.27127,0 0.50383,-0.07751 0.69768,-0.232558 0.1938,-0.155016 0.31002,-0.387574 0.42633,-0.697681 z m 0.11631,-1.744136 v 0 c 0,-0.503797 -0.15506,-0.891405 -0.38762,-1.162758 -0.23256,-0.271272 -0.54262,-0.387534 -0.8914,-0.387534 -0.38761,0 -0.69772,0.154936 -0.93024,0.426288 -0.23252,0.271353 -0.34882,0.658921 -0.34882,1.124004 h 2.59679 z m 3.13945,-2.751844 v 0 h 3.79834 c 0.77518,0 1.3566,0.155016 1.74413,0.426369 0.38762,0.271272 0.58138,0.697634 0.58138,1.279013 0,0.348821 -0.11626,0.697641 -0.31002,0.968994 -0.19378,0.271272 -0.46512,0.465076 -0.81398,0.542584 0.46515,0.116303 0.77518,0.310066 1.00774,0.620133 0.23256,0.310107 0.34886,0.620173 0.34886,1.007748 0,0.50387 -0.1938,0.930199 -0.58142,1.240265 -0.38753,0.310067 -0.93023,0.465076 -1.66663,0.465076 h -4.14719 v -6.588936 z m 1.74413,2.751844 v 0 h 1.12401 c 0.54262,0 0.9302,-0.07747 1.16275,-0.19373 0.23256,-0.155091 0.34887,-0.348855 0.34887,-0.658921 0,-0.271353 -0.11631,-0.465123 -0.34887,-0.581379 -0.23255,-0.116262 -0.62013,-0.193811 -1.20154,-0.193811 h -1.12393 V 53.5634 Z m 0,2.713163 v 0 h 1.39532 c 0.50384,0 0.85269,-0.07758 1.08525,-0.19377 0.2326,-0.116296 0.34882,-0.348854 0.34882,-0.658955 0,-0.310066 -0.11622,-0.542631 -0.38761,-0.658886 -0.27128,-0.116303 -0.77515,-0.193811 -1.51158,-0.193811 h -0.8914 v 1.666634 z m 7.17039,-3.449558 v 0 l -1.58912,-0.271313 c 0.19381,-0.658846 0.46509,-1.124037 0.9302,-1.43407 0.42636,-0.310066 1.08525,-0.465116 1.93794,-0.465116 0.77515,0 1.3566,0.07754 1.74414,0.271312 0.38761,0.193804 0.65889,0.426363 0.81394,0.697641 0.15505,0.271387 0.23255,0.813937 0.23255,1.550332 l -0.0388,2.015449 c 0,0.581412 0.0388,1.007741 0.0776,1.279053 0.0388,0.271353 0.15505,0.581419 0.31007,0.891445 h -1.70538 c -0.0388,-0.116262 -0.11627,-0.271197 -0.15506,-0.503796 -0.0387,-0.116296 -0.0387,-0.15505 -0.0775,-0.193804 -0.31006,0.3101 -0.62021,0.50387 -0.93027,0.658887 -0.34882,0.155016 -0.69768,0.232517 -1.08518,0.232517 -0.65892,0 -1.20155,-0.193804 -1.58916,-0.542584 -0.38757,-0.34882 -0.58138,-0.813977 -0.58138,-1.395315 0,-0.387575 0.0776,-0.697641 0.27136,-1.007708 0.19376,-0.271353 0.42632,-0.50387 0.73639,-0.658927 0.3101,-0.15501 0.77514,-0.271312 1.39531,-0.387608 0.81394,-0.155017 1.35653,-0.310026 1.70542,-0.426289 v -0.193804 c 0,-0.348861 -0.0775,-0.581378 -0.23255,-0.736435 -0.1551,-0.15501 -0.46512,-0.232558 -0.93024,-0.232558 -0.31006,0 -0.54263,0.07755 -0.73639,0.19373 -0.19385,0.116302 -0.31011,0.348894 -0.42641,0.658961 z m 2.32552,1.395322 v 0 c -0.23256,0.0775 -0.58134,0.15501 -1.0465,0.271312 -0.46511,0.116296 -0.8139,0.193804 -0.9302,0.3101 -0.2326,0.155017 -0.34882,0.34878 -0.34882,0.620099 0,0.232559 0.0775,0.465076 0.27132,0.620167 0.1938,0.19377 0.42632,0.271279 0.6976,0.271279 0.3101,0 0.62021,-0.116303 0.89145,-0.310067 0.1938,-0.155016 0.34885,-0.34882 0.42639,-0.581379 0.0388,-0.155016 0.0775,-0.426369 0.0775,-0.852697 v -0.348814 z m 9.14705,-1.472864 v 0 l -1.70538,0.31014 c -0.0388,-0.348854 -0.19377,-0.581419 -0.38758,-0.775257 -0.1938,-0.154976 -0.46512,-0.271238 -0.77518,-0.271238 -0.42637,0 -0.77518,0.154936 -1.04646,0.465076 -0.27132,0.310107 -0.38761,0.813903 -0.38761,1.511578 0,0.77519 0.11629,1.317774 0.38761,1.666635 0.27128,0.3101 0.62009,0.465076 1.04646,0.465076 0.31006,0 0.58138,-0.07747 0.81397,-0.271272 0.19374,-0.193804 0.34879,-0.503871 0.42629,-0.968994 l 1.70542,0.310033 c -0.1938,0.775257 -0.50387,1.395356 -1.00774,1.782998 -0.50387,0.3875 -1.16276,0.620099 -2.01545,0.620099 -0.96895,0 -1.70538,-0.310066 -2.2868,-0.891445 -0.58131,-0.620099 -0.85265,-1.43407 -0.85265,-2.51936 0,-1.085215 0.27134,-1.937906 0.85265,-2.519285 0.58142,-0.620092 1.35656,-0.891445 2.32555,-0.891445 0.81394,0 1.43407,0.155016 1.89919,0.503837 0.46508,0.34882 0.81394,0.852731 1.00771,1.58912 z m 0.54262,-1.937907 v 0 h 5.93009 v 1.395316 h -2.09299 v 5.154866 h -1.74414 v -5.154866 h -2.09296 z m 6.39521,3.21696 v 0 c 0,-0.581412 0.15501,-1.123963 0.42636,-1.666587 0.27128,-0.542625 0.69768,-0.968994 1.20148,-1.240307 0.50394,-0.271312 1.08525,-0.426328 1.74413,-0.426328 1.00775,0 1.82168,0.310066 2.44186,0.968953 0.62009,0.658887 0.96898,1.472864 0.96898,2.441818 0,1.007707 -0.3101,1.821644 -0.96898,2.480531 -0.65886,0.65888 -1.43411,0.968946 -2.4031,0.968946 -0.6201,0 -1.16276,-0.155009 -1.70535,-0.426321 -0.54262,-0.271279 -0.96895,-0.658928 -1.2403,-1.201512 -0.27128,-0.542625 -0.42633,-1.162757 -0.42633,-1.937947 z m 1.78292,0.07755 v 0 c 0,0.658887 0.15502,1.162757 0.46505,1.511578 0.3101,0.348854 0.69768,0.50383 1.16276,0.50383 0.46519,0 0.81397,-0.154976 1.124,-0.50383 0.3101,-0.348821 0.46516,-0.852691 0.46516,-1.511578 0,-0.658961 -0.15506,-1.124044 -0.46516,-1.472865 -0.31003,-0.348854 -0.69764,-0.50383 -1.124,-0.50383 -0.46508,0 -0.85266,0.154976 -1.16276,0.50383 -0.31003,0.348821 -0.46505,0.852732 -0.46505,1.511619 z m 6.27895,-3.294509 v 0 h 5.8525 v 6.588977 h -1.74413 v -5.154907 h -2.36423 v 5.154907 h -1.74414 z m 7.32529,3.21696 v 0 c 0,-0.581412 0.15509,-1.123963 0.42641,-1.666587 0.27131,-0.542625 0.69763,-0.968994 1.20154,-1.240307 0.50384,-0.271312 1.08522,-0.426328 1.74414,-0.426328 1.00774,0 1.82168,0.310066 2.44178,0.968953 0.62017,0.658887 0.96895,1.472864 0.96895,2.441818 0,1.007707 -0.31007,1.821644 -0.96895,2.480531 -0.65889,0.65888 -1.43404,0.968946 -2.40303,0.968946 -0.62016,0 -1.16275,-0.155009 -1.70538,-0.426321 -0.54262,-0.271279 -0.96903,-0.658928 -1.24027,-1.201512 -0.27135,-0.542625 -0.42636,-1.162757 -0.42636,-1.937947 z m 1.78297,0.07755 v 0 c 0,0.658887 0.15501,1.162757 0.46512,1.511578 0.31002,0.348854 0.69764,0.50383 1.16275,0.50383 0.46509,0 0.81394,-0.154976 1.12401,-0.50383 0.31006,-0.348821 0.46508,-0.852691 0.46508,-1.511578 0,-0.658961 -0.15502,-1.124044 -0.46508,-1.472865 -0.31007,-0.348854 -0.69765,-0.50383 -1.12401,-0.50383 -0.46511,0 -0.85273,0.154976 -1.16275,0.50383 -0.31011,0.348821 -0.46512,0.852732 -0.46512,1.511619 z m 6.5115,-3.294509 v 0 h 5.813792 v 6.588977 h -1.74414 v -5.154907 h -2.364302 v 2.945614 c 0,0.736469 -0.0776,1.279053 -0.27131,1.58916 -0.19381,0.310141 -0.34886,0.503871 -0.58139,0.581338 -0.19384,0.07755 -0.54262,0.155091 -1.00774,0.155091 -0.27131,0 -0.65892,-0.03876 -1.08525,-0.116296 v -1.27906 c 0.0388,0 0.1163,0 0.3101,0 0.19381,0 0.31003,0 0.42633,0 0.23256,0 0.38762,-0.07747 0.42637,-0.232559 0.0388,-0.154975 0.0775,-0.581378 0.0775,-1.278979 z m 7.596642,0 v 0 h 1.74414 v 2.751844 h 1.74417 c 0.69768,0 1.20155,0.03876 1.58913,0.15509 0.34885,0.116262 0.65892,0.310026 0.9302,0.620092 0.23255,0.310067 0.34882,0.697682 0.34882,1.124004 0,0.620207 -0.23257,1.12401 -0.65889,1.434076 -0.42629,0.310067 -1.08525,0.465076 -1.93795,0.465076 h -3.72083 v -6.588936 z m 1.74414,5.465007 v 0 h 1.62792 c 0.50383,0 0.81393,-0.07758 0.96898,-0.232558 0.15502,-0.155091 0.23253,-0.348821 0.23253,-0.581419 0,-0.310067 -0.11631,-0.542584 -0.38758,-0.658847 -0.23256,-0.116296 -0.69768,-0.193804 -1.31785,-0.193804 h -1.124 z"
    class="fil2" />
  <path
    style="fill:none;stroke:#7fc9d5;stroke-width:1.14445305"
    id="path3881"
    d="m 28.061728,11.122591 c 0.96899,0 1.74414,-0.813937 1.74414,-1.8216426 0,-1.007744 -0.77515,-1.821682 -1.74414,-1.821682 -0.96895,0 -1.74414,0.813938 -1.74414,1.821682 0,1.0077056 0.77519,1.8216426 1.74414,1.8216426"
    class="fil0 str1" />
  <line
    style="fill:none;stroke:#7fc9d5;stroke-width:0.76296681"
    id="line3883"
    y2="1.6654444"
    x2="28.061703"
    y1="7.5180407"
    x1="28.061703"
    class="fil0 str0" />
  <polyline
    style="fill:none;stroke:#7fc9d5;stroke-width:19.68499947"
    id="polyline3885"
    points="3335,2773 3465,2773 3465,2606 "
    class="fil0 str0"
    transform="matrix(0.03875875,0,0,0.03875875,-99.454543,-98.177086)" />
  <line
    style="fill:none;stroke:#7fc9d5;stroke-width:0.76296681"
    id="line3887"
    y2="27.323736"
    x2="39.418041"
    y1="5.1537523"
    x1="39.418041"
    class="fil0 str0" />
  <path
    style="fill:none;stroke:#7fc9d5;stroke-width:1.14445305"
    id="path3889"
    d="m 39.301768,30.850795 c 0.96895,0 1.74413,-0.813938 1.74413,-1.821644 0,-1.007743 -0.77518,-1.821681 -1.74413,-1.821681 -0.96899,0 -1.74414,0.813938 -1.74414,1.821681 0,1.007706 0.77515,1.821644 1.74414,1.821644"
    class="fil0 str1" />
  <path
    style="fill:none;stroke:#7fc9d5;stroke-width:1.14445305"
    id="path3891"
    d="m 8.0234553,33.990249 c 0.968953,0 1.744137,-0.813938 1.744137,-1.821644 0,-1.007743 -0.775184,-1.821682 -1.744137,-1.821682 -0.968952,0 -1.744136,0.813939 -1.744136,1.821682 0,1.007706 0.775184,1.821644 1.744136,1.821644"
    class="fil0 str1" />
  <polyline
    style="fill:none;stroke:#7fc9d5;stroke-width:19.68499947"
    id="polyline3893"
    points="2773,3410 2773,3573 3259,3573 "
    class="fil0 str0"
    transform="matrix(0.03875875,0,0,0.03875875,-99.454543,-98.177086)" />
  <line
    style="fill:none;stroke:#7fc9d5;stroke-width:0.76296681"
    id="line3895"
    y2="45.501652"
    x2="26.898975"
    y1="45.501652"
    x1="15.038798"
    class="fil0 str0" />
  <path
    style="fill:none;stroke:#7fc9d5;stroke-width:1.14445305"
    id="path3897"
    d="m 13.527178,47.168233 c 0.96899,0 1.744174,-0.813975 1.744174,-1.821681 0,-1.007744 -0.775184,-1.821645 -1.744174,-1.821645 -0.968952,0 -1.744137,0.813901 -1.744137,1.821645 0,1.007706 0.775185,1.821681 1.744137,1.821681"
    class="fil0 str1" />
  <line
    style="fill:none;stroke:#7fc9d5;stroke-width:0.76296681"
    id="line3899"
    y2="23.099012"
    x2="43.410191"
    y1="8.6032705"
    x1="43.410191"
    class="fil0 str0" />
  <path
    style="fill:#04869b;stroke-width:0.03875874"
    id="path3901"
    d="m 48.216298,48.098432 h -3.75963 V 36.354555 l -7.48042,11.743877 -7.48045,-11.743877 V 48.098432 H 25.736212 V 29.377971 h 3.759586 l 7.48045,11.743876 7.48042,-11.743876 h 3.75963 z m 20.61965,-18.720461 v 0 h -3.75963 l -11.24,12.984179 V 29.377971 h -3.75966 v 18.720461 h 3.75966 l 11.24,-12.984179 v 12.984179 h 3.75963 z m 20.61965,18.720461 v 0 h -3.75963 v -3.759624 h -11.24001 v 3.759624 h -3.75962 V 34.687926 c 0,-3.759623 1.86044,-5.620021 5.62006,-5.620021 h 7.48042 c 3.75962,0 5.62002,1.860398 5.62002,5.620021 v 13.410506 z m -3.75963,-7.480419 v 0 -5.930087 c 0,-1.240302 -0.62013,-1.860435 -1.8604,-1.860435 h -7.48041 c -1.24031,0 -1.86044,0.620133 -1.86044,1.860435 v 5.930087 h 11.24004 z M 110.03652,29.377971 v 0 h -3.75965 V 44.377599 H 95.036858 V 29.377971 h -3.75962 v 18.720461 h 16.860102 v 3.759619 h 3.75955 v -7.480452 h -1.86037 z"
    class="fil2" />
  <path
    style="fill:#04869b;stroke:#04869b;stroke-width:0.11627622"
    id="path3903"
    d="M 53.603758,26.122219 C 52.983548,6.0064424 30.929868,-6.6289164 13.914789,3.7971874 h 3.216961 c 16.084878,-6.2014 31.820978,3.953392 32.712418,22.2862786 h 3.72083 z"
    class="fil2 str2" />
  <path
    style="fill:url(#id1);stroke-width:0.03875874"
    id="path3905"
    d="m 0.27168832,25.347072 v -8.95328 c 0,-0.658923 0.542625,-1.201548 1.24030198,-1.201548 H 11.317961 V 6.2002474 c 0,-0.658923 0.542588,-1.201548 1.240265,-1.201548 h 9.108294 c 0.697675,0 1.240306,0.542625 1.240306,1.201548 v 8.9919966 h 8.953242 c 0.69767,0 1.2403,0.542625 1.2403,1.201548 v 8.95328 c 0,0.658886 -0.54263,1.201512 -1.2403,1.201512 h -8.953242 v 8.720721 c 0,0.658886 -0.542631,1.201511 -1.240306,1.201511 h -9.108294 c -0.697677,0 -1.240265,-0.542625 -1.240265,-1.201511 V 26.548584 H 1.5119903 c -0.69767698,0 -1.24030198,-0.542626 -1.24030198,-1.201512 z"
    class="fil3" />
  <path
    style="fill:#04869b;stroke-width:0.03875874"
    id="path3907"
    d="m 0.03916632,27.672588 c 1.04645898,0 1.43406998,0 1.43406998,0 0.310067,6.627727 2.054203,12.05398 5.503722,16.356154 5.2712017,6.395206 11.9377187,9.650954 19.9995197,9.767256 0,0.348821 0,0.50383 0,0.50383 C 18.061986,54.067344 10.93035,50.772802 6.0467603,44.648911 1.7833033,39.416465 0.03916632,33.835234 0.03916632,27.711341 Z"
    class="fil2" />
  <path
    style="fill:#04869b;stroke-width:0.03875874"
    id="path3909"
    d="m 5.3878363,14.145784 c -1.201511,0 -1.78289,0 -1.78289,0 1.589123,-2.984439 3.837131,-5.6200206 6.7440247,-7.9843276 0,1.356564 0,2.054241 0,2.054241 -1.9766957,1.78289 -3.6045717,3.7208326 -4.9611347,5.9300866 z"
    class="fil2" />
</svg>
